<?xml version="1.0" encoding="utf-8"?>
<!-- Generator: Adobe Illustrator 23.0.0, SVG Export Plug-In . SVG Version: 6.00 Build 0)  -->
<svg version="1.1"
	 id="svg2" sodipodi:docname="Email_square_black.ai" xmlns:inkscape="http://www.inkscape.org/namespaces/inkscape" xmlns:sodipodi="http://sodipodi.sourceforge.net/DTD/sodipodi-0.dtd" xmlns:svg="http://www.w3.org/2000/svg"
	 xmlns="http://www.w3.org/2000/svg" xmlns:xlink="http://www.w3.org/1999/xlink" x="0px" y="0px" viewBox="0 0 600 600"
	 style="enable-background:new 0 0 600 600;" xml:space="preserve">
<style type="text/css">
	.st0{clip-path:url(#SVGID_2_);}
	.st1{fill-rule:evenodd;clip-rule:evenodd;fill:#E43C13;}
	.st2{fill:#FFFFFF;}
</style>
<sodipodi:namedview  bordercolor="#000000" borderopacity="0.25" id="namedview4" inkscape:deskcolor="#d1d1d1" inkscape:pagecheckerboard="0" inkscape:pageopacity="0.0" inkscape:showpageshadow="2" pagecolor="#ffffff">
	</sodipodi:namedview>
<g id="g8" transform="matrix(1.3333333,0,0,-1.3333333,0,600)" inkscape:groupmode="layer" inkscape:label="Email_square_black">
	<g id="g10">
		<g>
			<defs>
				<rect id="SVGID_1_" x="-75" y="-75" width="600" height="600"/>
			</defs>
			<clipPath id="SVGID_2_">
				<use xlink:href="#SVGID_1_"  style="overflow:visible;"/>
			</clipPath>
			<g id="g12" class="st0">
				<g id="g18" transform="translate(378.2109,-1e-4)">
					<path id="path20" class="st1" d="M0,0h-306.4c-39.5,0-71.8,32.3-71.8,71.8v306.4c0,39.5,32.3,71.8,71.8,71.8H0
						c39.5,0,71.8-32.3,71.8-71.8V71.8C71.8,32.3,39.5,0,0,0"/>
				</g>
				<g id="g22" transform="translate(225,160.5595)">
					<path id="path24" class="st2" d="M0,0c-35.5,0-64.4,28.9-64.4,64.4c0,35.5,28.9,64.4,64.4,64.4S64.4,100,64.4,64.4
						C64.4,28.9,35.5,0,0,0 M150.7,126.6c-8,19.4-19.6,36.9-34.3,51.9c-14.8,15.1-32,27-51.2,35.4c-19.9,8.7-41.1,13.3-63,13.6
						c-22.3,0.3-43.9-3.8-64.3-12.2c-19.7-8.1-37.4-19.9-52.6-34.9c-15.2-15.1-27.1-32.6-35.5-52.2c-8.6-20.3-13-41.9-12.9-64.2
						c0.1-22.2,4.5-43.7,13.2-63.9c8.4-19.5,20.3-37,35.5-51.9c15.2-14.9,32.9-26.6,52.5-34.6c19.7-8,40.5-12.1,61.9-12.1
						c0.8,0,1.5,0,2.3,0C25-98.3,47-93.4,67.5-84c6.2,2.8,9,10.2,6.2,16.5c-2.8,6.2-10.2,9-16.5,6.2c-17.4-7.9-36-12.1-55.3-12.4
						C-35.4-74.2-70.5-60.2-97-34.1c-26.5,26-41.1,60.9-41.2,98.1c-0.1,37.3,14.4,72.4,41,98.6c26.5,26.3,61.7,40.5,99.1,40
						c75.7-1,136.8-63.4,136.3-139.1c-0.1-17.6-3.5-34.7-10-50.9C125,5,117.7,0,109.4,0C98.3,0,89.3,9,89.3,20.1v121.2
						c0,6.9-5.6,12.4-12.4,12.4c-6.9,0-12.4-5.6-12.4-12.4v-15c-0.4,0.4-0.9,0.9-1.3,1.3C46.3,144.5,23.9,153.7,0,153.7
						s-46.3-9.3-63.1-26.2C-80,110.7-89.3,88.3-89.3,64.4c0-23.9,9.3-46.3,26.2-63.1C-46.3-15.6-23.9-24.9,0-24.9
						s46.3,9.3,63.1,26.2c1.3,1.3,2.6,2.7,3.8,4c6.1-17.6,22.9-30.2,42.5-30.2c9,0,17.7,2.7,25.2,7.7c7.5,5,13.2,12.1,16.6,20.4
						c7.7,19.1,11.7,39.3,11.9,60.1C163.2,85.2,159,106.5,150.7,126.6"/>
				</g>
			</g>
		</g>
	</g>
</g>
</svg>
