<?xml version="1.0" encoding="utf-8"?>
<!-- Generator: Adobe Illustrator 23.0.0, SVG Export Plug-In . SVG Version: 6.00 Build 0)  -->
<svg version="1.1"
	 id="svg2" sodipodi:docname="Telegram_square_black.ai" xmlns:inkscape="http://www.inkscape.org/namespaces/inkscape" xmlns:sodipodi="http://sodipodi.sourceforge.net/DTD/sodipodi-0.dtd" xmlns:svg="http://www.w3.org/2000/svg"
	 xmlns="http://www.w3.org/2000/svg" xmlns:xlink="http://www.w3.org/1999/xlink" x="0px" y="0px" viewBox="0 0 600 600"
	 style="enable-background:new 0 0 600 600;" xml:space="preserve">
<style type="text/css">
	.st0{clip-path:url(#SVGID_2_);}
	.st1{fill-rule:evenodd;clip-rule:evenodd;fill:#29A9EA;}
	.st2{fill-rule:evenodd;clip-rule:evenodd;fill:#FFFFFF;}
</style>
<sodipodi:namedview  bordercolor="#000000" borderopacity="0.25" id="namedview4" inkscape:deskcolor="#d1d1d1" inkscape:pagecheckerboard="0" inkscape:pageopacity="0.0" inkscape:showpageshadow="2" pagecolor="#ffffff">
	</sodipodi:namedview>
<g id="g8" transform="matrix(1.3333333,0,0,-1.3333333,0,600)" inkscape:groupmode="layer" inkscape:label="Telegram_square_black">
	<g id="g10">
		<g>
			<defs>
				<rect id="SVGID_1_" x="-75" y="-75" width="600" height="600"/>
			</defs>
			<clipPath id="SVGID_2_">
				<use xlink:href="#SVGID_1_"  style="overflow:visible;"/>
			</clipPath>
			<g id="g12" class="st0">
				<g id="g18" transform="translate(378.2109,-1e-4)">
					<path id="path20" class="st1" d="M0,0h-306.4c-39.5,0-71.8,32.3-71.8,71.8v306.4c0,39.5,32.3,71.8,71.8,71.8H0
						c39.5,0,71.8-32.3,71.8-71.8V71.8C71.8,32.3,39.5,0,0,0"/>
				</g>
				<g id="g22" transform="translate(91.3843,230.7167)">
					<path id="path24" class="st2" d="M0,0c61.9,25.9,136.7,62.8,201.5,87.8c59.9,21.9,58.9,16,49.9-43.9
						c-7-47.9-15-95.8-22.9-143.7c-3-22.9-15-34.9-39.9-20.9l-77.8,54.9c-11,9-8,16,1,24.9l71.8,67.8c19,19,10,25.9-12,11L72.8-28.9
						c-14-10-28.9-10-44.9-5L-6-21.9C-27.9-14-11-5,0,0"/>
				</g>
			</g>
		</g>
	</g>
</g>
</svg>
