<?xml version="1.0" encoding="utf-8"?>
<!-- Generator: Adobe Illustrator 23.0.0, SVG Export Plug-In . SVG Version: 6.00 Build 0)  -->
<svg version="1.1"
	 id="svg2" sodipodi:docname="WhatsApp_square_black.ai" xmlns:inkscape="http://www.inkscape.org/namespaces/inkscape" xmlns:sodipodi="http://sodipodi.sourceforge.net/DTD/sodipodi-0.dtd" xmlns:svg="http://www.w3.org/2000/svg"
	 xmlns="http://www.w3.org/2000/svg" xmlns:xlink="http://www.w3.org/1999/xlink" x="0px" y="0px" viewBox="0 0 600 600"
	 style="enable-background:new 0 0 600 600;" xml:space="preserve">
<style type="text/css">
	.st0{clip-path:url(#SVGID_2_);}
	.st1{fill-rule:evenodd;clip-rule:evenodd;fill:#25D366;}
	.st2{fill-rule:evenodd;clip-rule:evenodd;fill:#FFFFFF;}
</style>
<sodipodi:namedview  bordercolor="#000000" borderopacity="0.25" id="namedview4" inkscape:deskcolor="#d1d1d1" inkscape:pagecheckerboard="0" inkscape:pageopacity="0.0" inkscape:showpageshadow="2" pagecolor="#ffffff">
	</sodipodi:namedview>
<g id="g8" transform="matrix(1.3333333,0,0,-1.3333333,0,600)" inkscape:groupmode="layer" inkscape:label="WhatsApp_square_black">
	<g id="g10">
		<g>
			<defs>
				<rect id="SVGID_1_" x="-75" y="-75" width="600" height="600"/>
			</defs>
			<clipPath id="SVGID_2_">
				<use xlink:href="#SVGID_1_"  style="overflow:visible;"/>
			</clipPath>
			<g id="g12" class="st0">
				<g id="g18" transform="translate(378.2109,-1e-4)">
					<path id="path20" class="st1" d="M0,0h-306.4c-39.5,0-71.8,32.3-71.8,71.8v306.4c0,39.5,32.3,71.8,71.8,71.8H0
						c39.5,0,71.8-32.3,71.8-71.8V71.8C71.8,32.3,39.5,0,0,0"/>
				</g>
				<g id="g22" transform="translate(135.3145,114.6796)">
					<path id="path24" class="st2" d="M0,0l20.2,3.6l12.3,2.2c17.3-9.4,36.1-14.4,57-14.4c65.7,0,119.1,53.4,119.1,119.1
						S155.2,229.6,89.5,229.6c-65.7,0-119.1-53.4-119.1-119.1c0-23.8,7.2-45.5,18.8-64.3l-1.4-10.8l-2.9-21.7l-2.2-16.6L0,0z
						 M89.5,252.7c78.7,0,142.2-63.5,142.2-142.2S168.2-31.8,89.5-31.8c-21.7,0-41.9,4.3-59.9,13l-75.8-13l10.1,75.1l-0.7,1.4
						c-10.1,19.5-15.9,41.9-15.9,65.7C-52.7,189.2,10.8,252.7,89.5,252.7 M39,175.5c7.9,5.1,13,1.4,15.9-6.5l7.2-18.8
						c0,0,5.1-10.1-7.9-20.2c-2.2-1.4-2.2-1.4-1.4-5.1c2.9-8.7,14.4-34.7,51.3-54.9c3.6-2.2,4.3-2.2,7.9,0.7
						c2.9,2.9,6.5,6.5,9.4,9.4c6.5,5.8,10.1,7.9,15.9,3.6c4.3-2.9,8.7-6.5,13-9.4c4.3-3.6,11.6-7.9,4.3-16.6l-6.5-7.9
						c-9.4-11.6-17.3-12.3-29.6-9.4c-46.9,12.3-81.6,45.5-96.8,92.4C16.6,150.9,23.8,166.1,39,175.5"/>
				</g>
			</g>
		</g>
	</g>
</g>
</svg>
